<?xml version="1.0" encoding="UTF-8" standalone="no"?>
<!-- Created with Inkscape (http://www.inkscape.org/) -->

<svg
   xmlns:dc="http://purl.org/dc/elements/1.1/"
   xmlns:cc="http://creativecommons.org/ns#"
   xmlns:rdf="http://www.w3.org/1999/02/22-rdf-syntax-ns#"
   xmlns:svg="http://www.w3.org/2000/svg"
   xmlns="http://www.w3.org/2000/svg"
   xmlns:sodipodi="http://sodipodi.sourceforge.net/DTD/sodipodi-0.dtd"
   xmlns:inkscape="http://www.inkscape.org/namespaces/inkscape"
   width="1.4166667in"
   height="1.4166672in"
   viewBox="0 0 1.4166667 1.4166672"
   version="1.1"
   id="SVGRoot"
   inkscape:version="0.92.4 (5da689c313, 2019-01-14)"
   sodipodi:docname="busywidget.svg">
  <defs
     id="defs860" />
  <sodipodi:namedview
     id="base"
     pagecolor="#ffffff"
     bordercolor="#666666"
     borderopacity="1.0"
     inkscape:pageopacity="0.0"
     inkscape:pageshadow="2"
     inkscape:zoom="1.979899"
     inkscape:cx="89.497348"
     inkscape:cy="-26.105116"
     inkscape:document-units="in"
     inkscape:current-layer="layer1"
     showgrid="false"
     inkscape:window-width="1280"
     inkscape:window-height="982"
     inkscape:window-x="0"
     inkscape:window-y="0"
     inkscape:window-maximized="1" />
  <metadata
     id="metadata863">
    <rdf:RDF>
      <cc:Work
         rdf:about="">
        <dc:format>image/svg+xml</dc:format>
        <dc:type
           rdf:resource="http://purl.org/dc/dcmitype/StillImage" />
        <dc:title />
      </cc:Work>
    </rdf:RDF>
  </metadata>
  <g
     inkscape:label="Layer 1"
     inkscape:groupmode="layer"
     id="layer1"
     transform="translate(-5.4166667,-3.046131)">
    <g
       transform="matrix(0.03937008,0,0,0.03937008,5.4375,-6.7717815)"
       id="busywidget">
      <rect
         y="249.37497"
         x="-0.5291667"
         height="35.983345"
         width="35.983334"
         id="rect4524"
         style="opacity:1;fill:#550000;fill-opacity:0;stroke:none;stroke-width:2.00739384;stroke-opacity:1" />
      <g
         id="g4570">
        <path
           id="path4533"
           d="m 17.4625,251.49165 a 15.875,15.875 0 0 0 -15.8749998,15.875 15.875,15.875 0 0 0 15.8749998,15.875 15.875,15.875 0 0 0 15.875,-15.875 15.875,15.875 0 0 0 -15.875,-15.875 z m 0,1.5875 A 14.2875,14.2875 0 0 1 31.75,267.36665 14.2875,14.2875 0 0 1 17.4625,281.65415 14.2875,14.2875 0 0 1 3.1750002,267.36665 14.2875,14.2875 0 0 1 17.4625,253.07915 Z"
           style="opacity:1;fill:#006a80;fill-opacity:1;stroke:none;stroke-width:2.25473905;stroke-opacity:1"
           inkscape:connector-curvature="0" />
        <path
           style="opacity:1;fill:#00ffff;fill-opacity:1;stroke:none;stroke-width:2.25473905;stroke-opacity:1"
           d="m 32.54375,266.5729 a 0.79374994,0.79374994 0 0 0 -0.79375,0.79375 14.2875,14.2875 0 0 1 -14.2875,14.2875 0.79374994,0.79374994 0 0 0 -0.79375,0.79375 0.79374994,0.79374994 0 0 0 0.79375,0.79375 15.875,15.875 0 0 0 15.875,-15.875 0.79374994,0.79374994 0 0 0 -0.79375,-0.79375 z"
           id="path4539"
           inkscape:connector-curvature="0" />
      </g>
    </g>
    <g
       id="stopped"
       transform="matrix(0.03937008,0,0,0.03937008,5.6875001,-5.3551138)">
      <rect
         y="213.39162"
         x="-42.862503"
         height="35.983334"
         width="35.983334"
         id="rect4648"
         style="opacity:1;fill:#ff00ff;fill-opacity:0;stroke:none;stroke-width:10.46928406;stroke-opacity:1" />
    </g>
  </g>
</svg>
